<svg width="1216" height="726" viewBox="0 0 1216 726" fill="none" xmlns="http://www.w3.org/2000/svg">
<g clip-path="url(#clip0_514_499)">
<mask id="mask0_514_499" style="mask-type:alpha" maskUnits="userSpaceOnUse" x="76" y="-5" width="1063" height="620">
<rect x="607.686" y="83.9818" width="88.1093" height="88.1093" stroke="white" stroke-opacity="0.45"/>
<rect x="696.168" y="83.9818" width="88.1093" height="88.1093" stroke="white" stroke-opacity="0.45"/>
<rect x="961.613" y="83.9818" width="88.1093" height="88.1093" stroke="white" stroke-opacity="0.45"/>
<rect x="1050.1" y="83.9818" width="88.1093" height="88.1093" stroke="white" stroke-opacity="0.45"/>
<rect x="253.759" y="83.9818" width="88.1093" height="88.1093" stroke="white" stroke-opacity="0.45"/>
<rect x="342.241" y="83.9818" width="88.1093" height="88.1093" stroke="white" stroke-opacity="0.45"/>
<rect x="607.686" y="260.945" width="88.1093" height="88.1093" stroke="white" stroke-opacity="0.45"/>
<rect x="696.168" y="260.945" width="88.1093" height="88.1093" stroke="white" stroke-opacity="0.45"/>
<rect x="961.613" y="260.945" width="88.1093" height="88.1093" stroke="white" stroke-opacity="0.45"/>
<rect x="1050.1" y="260.945" width="88.1093" height="88.1093" stroke="white" stroke-opacity="0.45"/>
<rect x="253.759" y="260.945" width="88.1093" height="88.1093" stroke="white" stroke-opacity="0.45"/>
<rect x="342.241" y="260.945" width="88.1093" height="88.1093" stroke="white" stroke-opacity="0.45"/>
<rect x="607.686" y="172.464" width="88.1093" height="88.1093" stroke="white" stroke-opacity="0.45"/>
<rect x="696.168" y="172.464" width="88.1093" height="88.1093" stroke="white" stroke-opacity="0.45"/>
<rect x="961.613" y="172.464" width="88.1093" height="88.1093" stroke="white" stroke-opacity="0.45"/>
<rect x="1050.1" y="172.464" width="88.1093" height="88.1093" stroke="white" stroke-opacity="0.45"/>
<rect x="253.759" y="172.464" width="88.1093" height="88.1093" stroke="white" stroke-opacity="0.45"/>
<rect x="342.241" y="172.464" width="88.1093" height="88.1093" stroke="white" stroke-opacity="0.45"/>
<rect x="607.686" y="349.427" width="88.1093" height="88.1093" stroke="white" stroke-opacity="0.45"/>
<rect x="696.168" y="349.427" width="88.1093" height="88.1093" stroke="white" stroke-opacity="0.45"/>
<rect x="961.613" y="349.427" width="88.1093" height="88.1093" stroke="white" stroke-opacity="0.45"/>
<rect x="1050.1" y="349.427" width="88.1093" height="88.1093" stroke="white" stroke-opacity="0.45"/>
<rect x="253.759" y="349.427" width="88.1093" height="88.1093" stroke="white" stroke-opacity="0.45"/>
<rect x="342.241" y="349.427" width="88.1093" height="88.1093" stroke="white" stroke-opacity="0.45"/>
<rect x="607.686" y="437.909" width="88.1093" height="88.1093" stroke="white" stroke-opacity="0.45"/>
<rect x="696.168" y="437.909" width="88.1093" height="88.1093" stroke="white" stroke-opacity="0.45"/>
<rect x="961.613" y="437.909" width="88.1093" height="88.1093" stroke="white" stroke-opacity="0.45"/>
<rect x="1050.1" y="437.909" width="88.1093" height="88.1093" stroke="white" stroke-opacity="0.45"/>
<rect x="253.759" y="437.909" width="88.1093" height="88.1093" stroke="white" stroke-opacity="0.45"/>
<rect x="342.241" y="437.909" width="88.1093" height="88.1093" stroke="white" stroke-opacity="0.45"/>
<rect x="430.723" y="83.9818" width="88.1093" height="88.1093" stroke="white" stroke-opacity="0.45"/>
<rect x="519.204" y="83.9818" width="88.1093" height="88.1093" stroke="white" stroke-opacity="0.45"/>
<rect x="784.65" y="83.9818" width="88.1093" height="88.1093" stroke="white" stroke-opacity="0.45"/>
<rect x="873.132" y="83.9818" width="88.1093" height="88.1093" stroke="white" stroke-opacity="0.45"/>
<rect x="76.7955" y="83.9818" width="88.1093" height="88.1093" stroke="white" stroke-opacity="0.45"/>
<rect x="165.277" y="83.9818" width="88.1093" height="88.1093" stroke="white" stroke-opacity="0.45"/>
<rect x="430.723" y="260.945" width="88.1093" height="88.1093" stroke="white" stroke-opacity="0.45"/>
<rect x="519.204" y="260.945" width="88.1093" height="88.1093" stroke="white" stroke-opacity="0.45"/>
<rect x="784.65" y="260.945" width="88.1093" height="88.1093" stroke="white" stroke-opacity="0.45"/>
<rect x="873.132" y="260.945" width="88.1093" height="88.1093" stroke="white" stroke-opacity="0.45"/>
<rect x="76.7955" y="260.945" width="88.1093" height="88.1093" stroke="white" stroke-opacity="0.45"/>
<rect x="165.277" y="260.945" width="88.1093" height="88.1093" stroke="white" stroke-opacity="0.45"/>
<rect x="430.723" y="172.464" width="88.1093" height="88.1093" stroke="white" stroke-opacity="0.45"/>
<rect x="519.204" y="172.464" width="88.1093" height="88.1093" stroke="white" stroke-opacity="0.45"/>
<rect x="784.65" y="172.464" width="88.1093" height="88.1093" stroke="white" stroke-opacity="0.45"/>
<rect x="873.132" y="172.464" width="88.1093" height="88.1093" stroke="white" stroke-opacity="0.45"/>
<rect x="76.7955" y="172.464" width="88.1093" height="88.1093" stroke="white" stroke-opacity="0.45"/>
<rect x="165.277" y="172.464" width="88.1093" height="88.1093" stroke="white" stroke-opacity="0.45"/>
<rect x="430.723" y="349.427" width="88.1093" height="88.1093" stroke="white" stroke-opacity="0.45"/>
<rect x="519.204" y="349.427" width="88.1093" height="88.1093" stroke="white" stroke-opacity="0.45"/>
<rect x="784.65" y="349.427" width="88.1093" height="88.1093" stroke="white" stroke-opacity="0.45"/>
<rect x="873.132" y="349.427" width="88.1093" height="88.1093" stroke="white" stroke-opacity="0.45"/>
<rect x="76.7955" y="349.427" width="88.1093" height="88.1093" stroke="white" stroke-opacity="0.45"/>
<rect x="165.277" y="349.427" width="88.1093" height="88.1093" stroke="white" stroke-opacity="0.45"/>
<rect x="430.723" y="437.909" width="88.1093" height="88.1093" stroke="white" stroke-opacity="0.45"/>
<rect x="519.204" y="437.909" width="88.1093" height="88.1093" stroke="white" stroke-opacity="0.45"/>
<rect x="784.65" y="437.909" width="88.1093" height="88.1093" stroke="white" stroke-opacity="0.45"/>
<rect x="873.132" y="437.909" width="88.1093" height="88.1093" stroke="white" stroke-opacity="0.45"/>
<rect x="76.7955" y="437.909" width="88.1093" height="88.1093" stroke="white" stroke-opacity="0.45"/>
<rect x="165.277" y="437.909" width="88.1093" height="88.1093" stroke="white" stroke-opacity="0.45"/>
<rect x="607.686" y="-4.5" width="88.1093" height="88.1093" stroke="white" stroke-opacity="0.45"/>
<rect x="696.168" y="-4.5" width="88.1093" height="88.1093" stroke="white" stroke-opacity="0.45"/>
<rect x="961.613" y="-4.5" width="88.1093" height="88.1093" stroke="white" stroke-opacity="0.45"/>
<rect x="1050.1" y="-4.5" width="88.1093" height="88.1093" stroke="white" stroke-opacity="0.45"/>
<rect x="253.759" y="-4.5" width="88.1093" height="88.1093" stroke="white" stroke-opacity="0.45"/>
<rect x="342.241" y="-4.5" width="88.1093" height="88.1093" stroke="white" stroke-opacity="0.45"/>
<rect x="430.723" y="-4.5" width="88.1093" height="88.1093" stroke="white" stroke-opacity="0.45"/>
<rect x="519.204" y="-4.5" width="88.1093" height="88.1093" stroke="white" stroke-opacity="0.45"/>
<rect x="784.65" y="-4.5" width="88.1093" height="88.1093" stroke="white" stroke-opacity="0.45"/>
<rect x="873.132" y="-4.5" width="88.1093" height="88.1093" stroke="white" stroke-opacity="0.45"/>
<rect x="76.7955" y="-4.5" width="88.1093" height="88.1093" stroke="white" stroke-opacity="0.45"/>
<rect x="165.277" y="-4.5" width="88.1093" height="88.1093" stroke="white" stroke-opacity="0.45"/>
<rect x="607.686" y="526.391" width="88.1093" height="88.1093" stroke="white" stroke-opacity="0.45"/>
<rect x="696.168" y="526.391" width="88.1093" height="88.1093" stroke="white" stroke-opacity="0.45"/>
<rect x="961.613" y="526.391" width="88.1093" height="88.1093" stroke="white" stroke-opacity="0.45"/>
<rect x="1050.1" y="526.391" width="88.1093" height="88.1093" stroke="white" stroke-opacity="0.45"/>
<rect x="253.759" y="526.391" width="88.1093" height="88.1093" stroke="white" stroke-opacity="0.45"/>
<rect x="342.241" y="526.391" width="88.1093" height="88.1093" stroke="white" stroke-opacity="0.45"/>
<rect x="430.723" y="526.391" width="88.1093" height="88.1093" stroke="white" stroke-opacity="0.45"/>
<rect x="519.204" y="526.391" width="88.1093" height="88.1093" stroke="white" stroke-opacity="0.45"/>
<rect x="784.65" y="526.391" width="88.1093" height="88.1093" stroke="white" stroke-opacity="0.45"/>
<rect x="873.132" y="526.391" width="88.1093" height="88.1093" stroke="white" stroke-opacity="0.45"/>
<rect x="76.7955" y="526.391" width="88.1093" height="88.1093" stroke="white" stroke-opacity="0.45"/>
<rect x="165.277" y="526.391" width="88.1093" height="88.1093" stroke="white" stroke-opacity="0.45"/>
</mask>
<g mask="url(#mask0_514_499)">
<circle cx="608" cy="260" r="608" fill="url(#paint0_radial_514_499)"/>
</g>
</g>
<defs>
<radialGradient id="paint0_radial_514_499" cx="0" cy="0" r="1" gradientUnits="userSpaceOnUse" gradientTransform="translate(608 260) rotate(90) scale(608)">
<stop/>
<stop offset="0.430852" stop-color="#737373" stop-opacity="0"/>
</radialGradient>
<clipPath id="clip0_514_499">
<rect width="1216" height="726" fill="white"/>
</clipPath>
</defs>
</svg>
