<svg width="512" height="512" viewBox="0 0 512 512" fill="none" xmlns="http://www.w3.org/2000/svg">
<path fill-rule="evenodd" clip-rule="evenodd" d="M97.5 199.25L212.078 112.513L347.003 137.142L415 184.794L391.442 436.438L277.399 508.184L123.735 444.47L97.5 199.25ZM284.359 189.078C295.892 189.078 305.24 186.441 305.24 183.188C305.24 179.935 295.892 177.298 284.359 177.298C272.827 177.298 263.478 179.935 263.478 183.188C263.478 186.441 272.827 189.078 284.359 189.078ZM324.515 173.551L348.073 140.89L408.04 184.794L324.515 173.551ZM413.929 185.865L277.399 249.579V507.113L390.906 436.438L413.929 185.865Z" fill="#FAFAFA"/>
<path d="M296.138 52.0118L397.331 18.8162L403.756 33.8077L302.563 66.4679C302.563 66.4679 300.422 67.5388 297.745 71.8221C295.067 76.1054 294.532 78.7824 294.532 78.7824V189.613H280.076V75.0345C280.076 75.0345 281.682 65.3971 285.43 61.1138C289.178 56.8305 296.138 52.0118 296.138 52.0118Z" fill="#F5F5F5"/>
</svg>
