<svg width="547" height="547" viewBox="0 0 547 547" fill="none" xmlns="http://www.w3.org/2000/svg">
<g clip-path="url(#clip0_1315_140)">
<mask id="mask0_1315_140" style="mask-type:alpha" maskUnits="userSpaceOnUse" x="146" y="68" width="470" height="411">
<rect x="146.512" y="68.3721" width="468.837" height="410.233" fill="#F00000"/>
</mask>
<g mask="url(#mask0_1315_140)">
<path d="M206.94 300.313H216.231V309.605H206.94V300.313ZM216.231 300.313H225.523V309.605H216.231V300.313ZM225.523 300.313H234.815V309.605H225.523V300.313ZM234.815 300.313H244.107V309.605H234.815V300.313ZM234.815 291.021H244.107V300.313H234.815V291.021ZM225.523 291.021H234.815V300.313H225.523V291.021ZM216.231 291.021H225.523V300.313H216.231V291.021ZM206.94 291.021H216.231V300.313H206.94V291.021ZM206.94 281.729H216.231V291.021H206.94V281.729ZM206.94 272.437H216.231V281.729H206.94V272.437ZM206.94 263.146H216.231V272.437H206.94V263.146ZM206.94 253.854H216.231V263.146H206.94V253.854ZM206.94 244.562H216.231V253.854H206.94V244.562ZM206.94 235.27H216.231V244.562H206.94V235.27ZM206.94 225.978H216.231V235.27H206.94V225.978ZM216.231 225.978H225.523V235.27H216.231V225.978ZM216.231 216.686H225.523V225.978H216.231V216.686ZM216.231 207.395H225.523V216.686H216.231V207.395ZM225.523 207.395H234.815V216.686H225.523V207.395ZM225.523 216.686H234.815V225.978H225.523V216.686ZM234.815 216.686H244.107V225.978H234.815V216.686ZM234.815 225.978H244.107V235.27H234.815V225.978ZM234.815 235.27H244.107V244.562H234.815V235.27ZM234.815 244.562H244.107V253.854H234.815V244.562ZM234.815 253.854H244.107V263.146H234.815V253.854ZM234.815 263.146H244.107V272.437H234.815V263.146ZM234.815 272.437H244.107V281.729H234.815V272.437ZM234.815 281.729H244.107V291.021H234.815V281.729ZM225.523 281.729H234.815V291.021H225.523V281.729ZM225.523 272.437H234.815V281.729H225.523V272.437ZM225.523 263.146H234.815V272.437H225.523V263.146ZM225.523 253.854H234.815V263.146H225.523V253.854ZM225.523 244.562H234.815V253.854H225.523V244.562ZM225.523 235.27H234.815V244.562H225.523V235.27ZM225.523 225.978H234.815V235.27H225.523V225.978ZM216.231 235.27H225.523V244.562H216.231V235.27ZM216.231 244.562H225.523V253.854H216.231V244.562ZM216.231 253.854H225.523V263.146H216.231V253.854ZM216.231 263.146H225.523V272.437H216.231V263.146ZM216.231 272.437H225.523V281.729H216.231V272.437ZM216.231 281.729H225.523V291.021H216.231V281.729ZM206.94 123.768H216.231V133.06H206.94V123.768ZM206.94 133.06H216.231V142.352H206.94V133.06ZM206.94 151.644H216.231V160.936H206.94V151.644ZM206.94 160.936H216.231V170.227H206.94V160.936ZM206.94 170.227H216.231V179.519H206.94V170.227ZM206.94 179.519H216.231V188.811H206.94V179.519ZM206.94 188.811H216.231V198.103H206.94V188.811ZM206.94 198.103H216.231V207.395H206.94V198.103ZM206.94 207.395H216.231V216.686H206.94V207.395ZM206.94 216.686H216.231V225.978H206.94V216.686ZM216.231 179.519H225.523V188.811H216.231V179.519ZM216.231 170.227H225.523V179.519H216.231V170.227ZM216.231 160.936H225.523V170.227H216.231V160.936ZM216.231 151.644H225.523V160.936H216.231V151.644ZM216.231 142.352H225.523V151.644H216.231V142.352ZM206.94 142.352H216.231V151.644H206.94V142.352ZM216.231 123.768H225.523V133.06H216.231V123.768ZM225.523 123.768H234.815V133.06H225.523V123.768ZM225.523 133.06H234.815V142.352H225.523V133.06ZM234.815 142.352H244.107V151.644H234.815V142.352ZM234.815 133.06H244.107V142.352H234.815V133.06ZM234.815 123.768H244.107V133.06H234.815V123.768ZM234.815 151.644H244.107V160.936H234.815V151.644ZM234.815 160.936H244.107V170.227H234.815V160.936ZM234.815 170.227H244.107V179.519H234.815V170.227ZM234.815 179.519H244.107V188.811H234.815V179.519ZM234.815 188.811H244.107V198.103H234.815V188.811ZM234.815 198.103H244.107V207.395H234.815V198.103ZM234.815 207.395H244.107V216.686H234.815V207.395ZM225.523 198.103H234.815V207.395H225.523V198.103ZM225.523 188.811H234.815V198.103H225.523V188.811ZM225.523 179.519H234.815V188.811H225.523V179.519ZM216.231 188.811H225.523V198.103H216.231V188.811ZM216.231 198.103H225.523V207.395H216.231V198.103ZM225.523 170.227H234.815V179.519H225.523V170.227ZM225.523 142.352H234.815V151.644H225.523V142.352ZM225.523 151.644H234.815V160.936H225.523V151.644ZM225.523 160.936H234.815V170.227H225.523V160.936ZM216.231 133.06H225.523V142.352H216.231V133.06ZM299.858 300.313H309.149V309.605H299.858V300.313ZM309.149 300.313H318.441V309.605H309.149V300.313ZM318.441 300.313H327.733V309.605H318.441V300.313ZM318.441 291.021H327.733V300.313H318.441V291.021ZM309.149 291.021H318.441V300.313H309.149V291.021ZM299.858 291.021H309.149V300.313H299.858V291.021ZM299.858 281.729H309.149V291.021H299.858V281.729ZM299.858 272.437H309.149V281.729H299.858V272.437ZM299.858 263.146H309.149V272.437H299.858V263.146ZM299.858 253.854H309.149V263.146H299.858V253.854ZM299.858 244.562H309.149V253.854H299.858V244.562ZM299.858 235.27H309.149V244.562H299.858V235.27ZM299.858 225.978H309.149V235.27H299.858V225.978ZM309.149 225.978H318.441V235.27H309.149V225.978ZM309.149 216.686H318.441V225.978H309.149V216.686ZM309.149 207.395H318.441V216.686H309.149V207.395ZM318.441 207.395H327.733V216.686H318.441V207.395ZM318.441 216.686H327.733V225.978H318.441V216.686ZM318.441 281.729H327.733V291.021H318.441V281.729ZM318.441 272.437H327.733V281.729H318.441V272.437ZM318.441 263.146H327.733V272.437H318.441V263.146ZM318.441 253.854H327.733V263.146H318.441V253.854ZM318.441 244.562H327.733V253.854H318.441V244.562ZM318.441 235.27H327.733V244.562H318.441V235.27ZM318.441 225.978H327.733V235.27H318.441V225.978ZM309.149 235.27H318.441V244.562H309.149V235.27ZM309.149 244.562H318.441V253.854H309.149V244.562ZM309.149 253.854H318.441V263.146H309.149V253.854ZM309.149 263.146H318.441V272.437H309.149V263.146ZM309.149 272.437H318.441V281.729H309.149V272.437ZM309.149 281.729H318.441V291.021H309.149V281.729ZM299.858 123.768H309.149V133.06H299.858V123.768ZM299.858 133.06H309.149V142.352H299.858V133.06ZM299.858 151.644H309.149V160.936H299.858V151.644ZM299.858 160.936H309.149V170.227H299.858V160.936ZM299.858 170.227H309.149V179.519H299.858V170.227ZM299.858 179.519H309.149V188.811H299.858V179.519ZM299.858 188.811H309.149V198.103H299.858V188.811ZM299.858 198.103H309.149V207.395H299.858V198.103ZM299.858 207.395H309.149V216.686H299.858V207.395ZM299.858 216.686H309.149V225.978H299.858V216.686ZM309.149 179.519H318.441V188.811H309.149V179.519ZM309.149 170.227H318.441V179.519H309.149V170.227ZM309.149 160.936H318.441V170.227H309.149V160.936ZM309.149 151.644H318.441V160.936H309.149V151.644ZM309.149 142.352H318.441V151.644H309.149V142.352ZM299.858 142.352H309.149V151.644H299.858V142.352ZM309.149 123.768H318.441V133.06H309.149V123.768ZM318.441 123.768H327.733V133.06H318.441V123.768ZM318.441 133.06H327.733V142.352H318.441V133.06ZM318.441 198.103H327.733V207.395H318.441V198.103ZM318.441 188.811H327.733V198.103H318.441V188.811ZM318.441 179.519H327.733V188.811H318.441V179.519ZM309.149 188.811H318.441V198.103H309.149V188.811ZM309.149 198.103H318.441V207.395H309.149V198.103ZM318.441 170.227H327.733V179.519H318.441V170.227ZM318.441 142.352H327.733V151.644H318.441V142.352ZM318.441 151.644H327.733V160.936H318.441V151.644ZM318.441 160.936H327.733V170.227H318.441V160.936ZM309.149 133.06H318.441V142.352H309.149V133.06ZM244.107 198.103H253.399V207.395H244.107V198.103ZM253.399 198.103H262.69V207.395H253.399V198.103ZM262.69 198.103H271.982V207.395H262.69V198.103ZM271.982 198.103H281.274V207.395H271.982V198.103ZM281.274 198.103H290.566V207.395H281.274V198.103ZM290.566 198.103H299.858V207.395H290.566V198.103ZM290.566 225.978H299.858V235.27H290.566V225.978ZM281.274 225.978H290.566V235.27H281.274V225.978ZM281.274 216.686H290.566V225.978H281.274V216.686ZM271.982 216.686H281.274V225.978H271.982V216.686ZM262.69 216.686H271.982V225.978H262.69V216.686ZM253.399 216.686H262.69V225.978H253.399V216.686ZM244.107 216.686H253.399V225.978H244.107V216.686ZM244.107 225.978H253.399V235.27H244.107V225.978ZM253.399 225.978H262.69V235.27H253.399V225.978ZM262.69 225.978H271.982V235.27H262.69V225.978ZM271.982 225.978H281.274V235.27H271.982V225.978ZM290.566 216.686H299.858V225.978H290.566V216.686ZM281.274 207.395H290.566V216.686H281.274V207.395ZM271.982 207.395H281.274V216.686H271.982V207.395ZM244.107 207.395H253.399V216.686H244.107V207.395ZM253.399 207.395H262.69V216.686H253.399V207.395ZM262.69 207.395H271.982V216.686H262.69V207.395ZM290.566 207.395H299.858V216.686H290.566V207.395ZM290.566 123.768H299.858V133.06H290.566V123.768ZM290.566 133.06H299.858V142.352H290.566V133.06ZM290.566 142.352H299.858V151.644H290.566V142.352ZM290.566 151.644H299.858V160.936H290.566V151.644ZM290.566 160.936H299.858V170.227H290.566V160.936ZM290.566 170.227H299.858V179.519H290.566V170.227ZM290.566 179.519H299.858V188.811H290.566V179.519ZM290.566 188.811H299.858V198.103H290.566V188.811ZM290.566 235.27H299.858V244.562H290.566V235.27ZM290.566 244.562H299.858V253.854H290.566V244.562ZM290.566 263.146H299.858V272.437H290.566V263.146ZM290.566 272.437H299.858V281.729H290.566V272.437ZM290.566 281.729H299.858V291.021H290.566V281.729ZM290.566 291.021H299.858V300.313H290.566V291.021ZM290.566 300.313H299.858V309.605H290.566V300.313ZM290.566 253.854H299.858V263.146H290.566V253.854Z" fill="white"/>
<mask id="mask1_1315_140" style="mask-type:alpha" maskUnits="userSpaceOnUse" x="140" y="73" width="260" height="400">
<path d="M380.005 272.936H399.969V292.9H380.005V272.936ZM380.005 252.971H399.969V272.936H380.005V252.971ZM380.005 233.007H399.969V252.971H380.005V233.007ZM380.005 213.042H399.969V233.007H380.005V213.042ZM380.005 193.078H399.969V213.042H380.005V193.078ZM380.005 173.113H399.969V193.078H380.005V173.113ZM380.005 153.149H399.969V173.113H380.005V153.149ZM380.005 133.184H399.969V153.149H380.005V133.184ZM360.04 133.184H380.005V153.149H360.04V133.184ZM360.04 113.22H380.005V133.184H360.04V113.22ZM360.04 93.255H380.005V113.22H360.04V93.255ZM340.076 93.255H360.04V113.22H340.076V93.255ZM340.076 113.22H360.04V133.184H340.076V113.22ZM340.076 133.184H360.04V153.149H340.076V133.184ZM340.076 153.149H360.04V173.113H340.076V153.149ZM340.076 173.113H360.04V193.078H340.076V173.113ZM340.076 193.078H360.04V213.042H340.076V193.078ZM340.076 213.042H360.04V233.007H340.076V213.042ZM340.076 233.007H360.04V252.971H340.076V233.007ZM340.076 252.971H360.04V272.936H340.076V252.971ZM340.076 272.936H360.04V292.9H340.076V272.936ZM340.076 292.9H360.04V312.865H340.076V292.9ZM340.076 312.865H360.04V332.83H340.076V312.865ZM360.04 312.865H380.005V332.83H360.04V312.865ZM360.04 292.9H380.005V312.865H360.04V292.9ZM360.04 272.936H380.005V292.9H360.04V272.936ZM360.04 252.971H380.005V272.936H360.04V252.971ZM360.04 233.007H380.005V252.971H360.04V233.007ZM360.04 213.042H380.005V233.007H360.04V213.042ZM360.04 193.078H380.005V213.042H360.04V193.078ZM360.04 173.113H380.005V193.078H360.04V173.113ZM360.04 153.149H380.005V173.113H360.04V153.149ZM320.111 153.149H340.076V173.113H320.111V153.149ZM300.147 153.149H320.111V173.113H300.147V153.149ZM320.111 133.184H340.076V153.149H320.111V133.184ZM300.147 133.184H320.111V153.149H300.147V133.184ZM280.182 133.184H300.147V153.149H280.182V133.184ZM260.217 133.184H280.182V153.149H260.217V133.184ZM240.253 133.184H260.217V153.149H240.253V133.184ZM220.288 133.184H240.253V153.149H220.288V133.184ZM200.324 133.184H220.288V153.149H200.324V133.184ZM200.324 153.149H220.288V173.113H200.324V153.149ZM200.324 173.113H220.288V193.078H200.324V173.113ZM200.324 193.078H220.288V213.042H200.324V193.078ZM200.324 213.042H220.288V233.007H200.324V213.042ZM200.324 233.007H220.288V252.971H200.324V233.007ZM200.324 252.971H220.288V272.936H200.324V252.971ZM200.324 272.936H220.288V292.9H200.324V272.936ZM220.288 272.936H240.253V292.9H220.288V272.936ZM220.288 292.9H240.253V312.865H220.288V292.9ZM240.253 292.9H260.217V312.865H240.253V292.9ZM260.217 292.9H280.182V312.865H260.217V292.9ZM280.182 292.9H300.147V312.865H280.182V292.9ZM300.147 292.9H320.111V312.865H300.147V292.9ZM300.147 272.936H320.111V292.9H300.147V272.936ZM280.182 272.936H300.147V292.9H280.182V272.936ZM260.217 272.936H280.182V292.9H260.217V272.936ZM240.253 272.936H260.217V292.9H240.253V272.936ZM320.111 272.936H340.076V292.9H320.111V272.936ZM320.111 252.971H340.076V272.936H320.111V252.971ZM300.147 252.971H320.111V272.936H300.147V252.971ZM320.111 233.007H340.076V252.971H320.111V233.007ZM320.111 173.113H340.076V193.078H320.111V173.113ZM320.111 193.078H340.076V213.042H320.111V193.078ZM320.111 213.042H340.076V233.007H320.111V213.042ZM320.111 292.9H340.076V312.865H320.111V292.9ZM320.111 312.865H340.076V332.83H320.111V312.865ZM320.111 332.83H340.076V352.794H320.111V332.83ZM300.147 332.83H320.111V352.794H300.147V332.83ZM280.182 332.83H300.147V352.794H280.182V332.83ZM260.217 332.83H280.182V352.794H260.217V332.83ZM240.253 332.83H260.217V352.794H240.253V332.83ZM240.253 312.865H260.217V332.83H240.253V312.865ZM220.288 312.865H240.253V332.83H220.288V312.865ZM220.288 332.83H240.253V352.794H220.288V332.83ZM260.217 312.865H280.182V332.83H260.217V312.865ZM280.182 312.865H300.147V332.83H280.182V312.865ZM300.147 312.865H320.111V332.83H300.147V312.865ZM320.111 73.2904H340.076V93.255H320.111V73.2904ZM320.111 93.255H340.076V113.22H320.111V93.255ZM320.111 113.22H340.076V133.184H320.111V113.22ZM300.147 113.22H320.111V133.184H300.147V113.22ZM300.147 93.255H320.111V113.22H300.147V93.255ZM300.147 73.2904H320.111V93.255H300.147V73.2904ZM280.182 73.2904H300.147V93.255H280.182V73.2904ZM260.217 73.2904H280.182V93.255H260.217V73.2904ZM240.253 73.2904H260.217V93.255H240.253V73.2904ZM220.288 73.2904H240.253V93.255H220.288V73.2904ZM200.324 73.2904H220.288V93.255H200.324V73.2904ZM180.359 73.2904H200.324V93.255H180.359V73.2904ZM160.395 73.2904H180.359V93.255H160.395V73.2904ZM140.43 73.2904H160.395V93.255H140.43V73.2904ZM140.43 93.255H160.395V113.22H140.43V93.255ZM140.43 113.22H160.395V133.184H140.43V113.22ZM140.43 133.184H160.395V153.149H140.43V133.184ZM160.395 133.184H180.359V153.149H160.395V133.184ZM160.395 113.22H180.359V133.184H160.395V113.22ZM180.359 113.22H200.324V133.184H180.359V113.22ZM200.324 113.22H220.288V133.184H200.324V113.22ZM220.288 113.22H240.253V133.184H220.288V113.22ZM240.253 113.22H260.217V133.184H240.253V113.22ZM260.217 113.22H280.182V133.184H260.217V113.22ZM280.182 113.22H300.147V133.184H280.182V113.22ZM280.182 93.255H300.147V113.22H280.182V93.255ZM260.217 93.255H280.182V113.22H260.217V93.255ZM240.253 93.255H260.217V113.22H240.253V93.255ZM220.288 93.255H240.253V113.22H220.288V93.255ZM200.324 93.255H220.288V113.22H200.324V93.255ZM180.359 93.255H200.324V113.22H180.359V93.255ZM160.395 153.149H180.359V173.113H160.395V153.149ZM160.395 173.113H180.359V193.078H160.395V173.113ZM160.395 93.255H180.359V113.22H160.395V93.255ZM180.359 133.184H200.324V153.149H180.359V133.184ZM180.359 153.149H200.324V173.113H180.359V153.149ZM180.359 173.113H200.324V193.078H180.359V173.113ZM180.359 193.078H200.324V213.042H180.359V193.078ZM180.359 213.042H200.324V233.007H180.359V213.042ZM180.359 233.007H200.324V252.971H180.359V233.007ZM180.359 252.971H200.324V272.936H180.359V252.971ZM180.359 272.936H200.324V292.9H180.359V272.936ZM160.395 272.936H180.359V292.9H160.395V272.936ZM160.395 252.971H180.359V272.936H160.395V252.971ZM160.395 233.007H180.359V252.971H160.395V233.007ZM160.395 213.042H180.359V233.007H160.395V213.042ZM140.43 193.078H160.395V213.042H140.43V193.078ZM140.43 173.113H160.395V193.078H140.43V173.113ZM140.43 153.149H160.395V173.113H140.43V153.149ZM140.43 213.042H160.395V233.007H140.43V213.042ZM140.43 233.007H160.395V252.971H140.43V233.007ZM160.395 193.078H180.359V213.042H160.395V193.078ZM140.43 252.971H160.395V272.936H140.43V252.971ZM140.43 272.936H160.395V292.9H140.43V272.936ZM140.43 292.9H160.395V312.865H140.43V292.9ZM140.43 312.865H160.395V332.83H140.43V312.865ZM160.395 312.865H180.359V332.83H160.395V312.865ZM180.359 312.865H200.324V332.83H180.359V312.865ZM200.324 312.865H220.288V332.83H200.324V312.865ZM200.324 332.83H220.288V352.794H200.324V332.83ZM180.359 332.83H200.324V352.794H180.359V332.83ZM160.395 332.83H180.359V352.794H160.395V332.83ZM140.43 332.83H160.395V352.794H140.43V332.83ZM160.395 292.9H180.359V312.865H160.395V292.9ZM180.359 292.9H200.324V312.865H180.359V292.9ZM200.324 292.9H220.288V312.865H200.324V292.9ZM140.43 352.794H160.395V372.759H140.43V352.794ZM140.43 372.759H160.395V392.723H140.43V372.759ZM140.43 392.723H160.395V412.688H140.43V392.723ZM140.43 412.688H160.395V432.652H140.43V412.688ZM140.43 432.652H160.395V452.617H140.43V432.652ZM140.43 452.617H160.395V472.581H140.43V452.617ZM160.395 452.617H180.359V472.581H160.395V452.617ZM180.359 452.617H200.324V472.581H180.359V452.617ZM200.324 452.617H220.288V472.581H200.324V452.617ZM200.324 432.652H220.288V452.617H200.324V432.652ZM200.324 412.688H220.288V432.652H200.324V412.688ZM200.324 392.723H220.288V412.688H200.324V392.723ZM200.324 372.759H220.288V392.723H200.324V372.759ZM200.324 352.794H220.288V372.759H200.324V352.794ZM180.359 352.794H200.324V372.759H180.359V352.794ZM160.395 352.794H180.359V372.759H160.395V352.794ZM160.395 372.759H180.359V392.723H160.395V372.759ZM160.395 392.723H180.359V412.688H160.395V392.723ZM160.395 412.688H180.359V432.652H160.395V412.688ZM160.395 432.652H180.359V452.617H160.395V432.652ZM180.359 432.652H200.324V452.617H180.359V432.652ZM180.359 412.688H200.324V432.652H180.359V412.688ZM180.359 392.723H200.324V412.688H180.359V392.723ZM180.359 372.759H200.324V392.723H180.359V372.759Z" fill="black"/>
</mask>
<g mask="url(#mask1_1315_140)">
<rect x="269.407" y="73.0662" width="132.393" height="399.542" fill="#F3F4F6" fill-opacity="0.2"/>
</g>
<mask id="mask2_1315_140" style="mask-type:alpha" maskUnits="userSpaceOnUse" x="152" y="73" width="261" height="400">
<path d="M392.136 272.936H412.101V292.9H392.136V272.936ZM392.136 252.971H412.101V272.936H392.136V252.971ZM392.136 233.007H412.101V252.971H392.136V233.007ZM392.136 213.042H412.101V233.007H392.136V213.042ZM392.136 193.078H412.101V213.042H392.136V193.078ZM392.136 173.113H412.101V193.078H392.136V173.113ZM392.136 153.149H412.101V173.113H392.136V153.149ZM392.136 133.184H412.101V153.149H392.136V133.184ZM372.172 133.184H392.136V153.149H372.172V133.184ZM372.172 113.219H392.136V133.184H372.172V113.219ZM372.172 93.2549H392.136V113.219H372.172V93.2549ZM352.207 93.2549H372.172V113.219H352.207V93.2549ZM352.207 113.219H372.172V133.184H352.207V113.219ZM352.207 133.184H372.172V153.149H352.207V133.184ZM352.207 153.149H372.172V173.113H352.207V153.149ZM352.207 173.113H372.172V193.078H352.207V173.113ZM352.207 193.078H372.172V213.042H352.207V193.078ZM352.207 213.042H372.172V233.007H352.207V213.042ZM352.207 233.007H372.172V252.971H352.207V233.007ZM352.207 252.971H372.172V272.936H352.207V252.971ZM352.207 272.936H372.172V292.9H352.207V272.936ZM352.207 292.9H372.172V312.865H352.207V292.9ZM352.207 312.865H372.172V332.829H352.207V312.865ZM372.172 312.865H392.136V332.829H372.172V312.865ZM372.172 292.9H392.136V312.865H372.172V292.9ZM372.172 272.936H392.136V292.9H372.172V272.936ZM372.172 252.971H392.136V272.936H372.172V252.971ZM372.172 233.007H392.136V252.971H372.172V233.007ZM372.172 213.042H392.136V233.007H372.172V213.042ZM372.172 193.078H392.136V213.042H372.172V193.078ZM372.172 173.113H392.136V193.078H372.172V173.113ZM372.172 153.149H392.136V173.113H372.172V153.149ZM332.243 153.149H352.207V173.113H332.243V153.149ZM312.278 153.149H332.243V173.113H312.278V153.149ZM332.243 133.184H352.207V153.149H332.243V133.184ZM312.278 133.184H332.243V153.149H312.278V133.184ZM292.314 133.184H312.278V153.149H292.314V133.184ZM272.349 133.184H292.314V153.149H272.349V133.184ZM252.385 133.184H272.349V153.149H252.385V133.184ZM232.42 133.184H252.385V153.149H232.42V133.184ZM212.455 133.184H232.42V153.149H212.455V133.184ZM212.455 153.149H232.42V173.113H212.455V153.149ZM212.455 173.113H232.42V193.078H212.455V173.113ZM212.455 193.078H232.42V213.042H212.455V193.078ZM212.455 213.042H232.42V233.007H212.455V213.042ZM212.455 233.007H232.42V252.971H212.455V233.007ZM212.455 252.971H232.42V272.936H212.455V252.971ZM212.455 272.936H232.42V292.9H212.455V272.936ZM232.42 272.936H252.385V292.9H232.42V272.936ZM232.42 292.9H252.385V312.865H232.42V292.9ZM252.385 292.9H272.349V312.865H252.385V292.9ZM272.349 292.9H292.314V312.865H272.349V292.9ZM292.314 292.9H312.278V312.865H292.314V292.9ZM312.278 292.9H332.243V312.865H312.278V292.9ZM312.278 272.936H332.243V292.9H312.278V272.936ZM292.314 272.936H312.278V292.9H292.314V272.936ZM272.349 272.936H292.314V292.9H272.349V272.936ZM252.385 272.936H272.349V292.9H252.385V272.936ZM332.243 272.936H352.207V292.9H332.243V272.936ZM332.243 252.971H352.207V272.936H332.243V252.971ZM312.278 252.971H332.243V272.936H312.278V252.971ZM332.243 233.007H352.207V252.971H332.243V233.007ZM332.243 173.113H352.207V193.078H332.243V173.113ZM332.243 193.078H352.207V213.042H332.243V193.078ZM332.243 213.042H352.207V233.007H332.243V213.042ZM332.243 292.9H352.207V312.865H332.243V292.9ZM332.243 312.865H352.207V332.829H332.243V312.865ZM332.243 332.829H352.207V352.794H332.243V332.829ZM312.278 332.829H332.243V352.794H312.278V332.829ZM292.314 332.829H312.278V352.794H292.314V332.829ZM272.349 332.829H292.314V352.794H272.349V332.829ZM252.385 332.829H272.349V352.794H252.385V332.829ZM252.385 312.865H272.349V332.829H252.385V312.865ZM232.42 312.865H252.385V332.829H232.42V312.865ZM232.42 332.829H252.385V352.794H232.42V332.829ZM272.349 312.865H292.314V332.829H272.349V312.865ZM292.314 312.865H312.278V332.829H292.314V312.865ZM312.278 312.865H332.243V332.829H312.278V312.865ZM332.243 73.2903H352.207V93.2549H332.243V73.2903ZM332.243 93.2549H352.207V113.219H332.243V93.2549ZM332.243 113.219H352.207V133.184H332.243V113.219ZM312.278 113.219H332.243V133.184H312.278V113.219ZM312.278 93.2549H332.243V113.219H312.278V93.2549ZM312.278 73.2903H332.243V93.2549H312.278V73.2903ZM292.314 73.2903H312.278V93.2549H292.314V73.2903ZM272.349 73.2903H292.314V93.2549H272.349V73.2903ZM252.385 73.2903H272.349V93.2549H252.385V73.2903ZM232.42 73.2903H252.385V93.2549H232.42V73.2903ZM212.455 73.2903H232.42V93.2549H212.455V73.2903ZM192.491 73.2903H212.455V93.2549H192.491V73.2903ZM172.526 73.2903H192.491V93.2549H172.526V73.2903ZM152.562 73.2903H172.526V93.2549H152.562V73.2903ZM152.562 93.2549H172.526V113.219H152.562V93.2549ZM152.562 113.219H172.526V133.184H152.562V113.219ZM152.562 133.184H172.526V153.149H152.562V133.184ZM172.526 133.184H192.491V153.149H172.526V133.184ZM172.526 113.219H192.491V133.184H172.526V113.219ZM192.491 113.219H212.455V133.184H192.491V113.219ZM212.455 113.219H232.42V133.184H212.455V113.219ZM232.42 113.219H252.385V133.184H232.42V113.219ZM252.385 113.219H272.349V133.184H252.385V113.219ZM272.349 113.219H292.314V133.184H272.349V113.219ZM292.314 113.219H312.278V133.184H292.314V113.219ZM292.314 93.2549H312.278V113.219H292.314V93.2549ZM272.349 93.2549H292.314V113.219H272.349V93.2549ZM252.385 93.2549H272.349V113.219H252.385V93.2549ZM232.42 93.2549H252.385V113.219H232.42V93.2549ZM212.455 93.2549H232.42V113.219H212.455V93.2549ZM192.491 93.2549H212.455V113.219H192.491V93.2549ZM172.526 153.149H192.491V173.113H172.526V153.149ZM172.526 173.113H192.491V193.078H172.526V173.113ZM172.526 93.2549H192.491V113.219H172.526V93.2549ZM192.491 133.184H212.455V153.149H192.491V133.184ZM192.491 153.149H212.455V173.113H192.491V153.149ZM192.491 173.113H212.455V193.078H192.491V173.113ZM192.491 193.078H212.455V213.042H192.491V193.078ZM192.491 213.042H212.455V233.007H192.491V213.042ZM192.491 233.007H212.455V252.971H192.491V233.007ZM192.491 252.971H212.455V272.936H192.491V252.971ZM192.491 272.936H212.455V292.9H192.491V272.936ZM172.526 272.936H192.491V292.9H172.526V272.936ZM172.526 252.971H192.491V272.936H172.526V252.971ZM172.526 233.007H192.491V252.971H172.526V233.007ZM172.526 213.042H192.491V233.007H172.526V213.042ZM152.562 193.078H172.526V213.042H152.562V193.078ZM152.562 173.113H172.526V193.078H152.562V173.113ZM152.562 153.149H172.526V173.113H152.562V153.149ZM152.562 213.042H172.526V233.007H152.562V213.042ZM152.562 233.007H172.526V252.971H152.562V233.007ZM172.526 193.078H192.491V213.042H172.526V193.078ZM152.562 252.971H172.526V272.936H152.562V252.971ZM152.562 272.936H172.526V292.9H152.562V272.936ZM152.562 292.9H172.526V312.865H152.562V292.9ZM152.562 312.865H172.526V332.829H152.562V312.865ZM172.526 312.865H192.491V332.829H172.526V312.865ZM192.491 312.865H212.455V332.829H192.491V312.865ZM212.455 312.865H232.42V332.829H212.455V312.865ZM212.455 332.829H232.42V352.794H212.455V332.829ZM192.491 332.829H212.455V352.794H192.491V332.829ZM172.526 332.829H192.491V352.794H172.526V332.829ZM152.562 332.829H172.526V352.794H152.562V332.829ZM172.526 292.9H192.491V312.865H172.526V292.9ZM192.491 292.9H212.455V312.865H192.491V292.9ZM212.455 292.9H232.42V312.865H212.455V292.9ZM152.562 352.794H172.526V372.759H152.562V352.794ZM152.562 372.759H172.526V392.723H152.562V372.759ZM152.562 392.723H172.526V412.688H152.562V392.723ZM152.562 412.688H172.526V432.652H152.562V412.688ZM152.562 432.652H172.526V452.617H152.562V432.652ZM152.562 452.617H172.526V472.581H152.562V452.617ZM172.526 452.617H192.491V472.581H172.526V452.617ZM192.491 452.617H212.455V472.581H192.491V452.617ZM212.455 452.617H232.42V472.581H212.455V452.617ZM212.455 432.652H232.42V452.617H212.455V432.652ZM212.455 412.688H232.42V432.652H212.455V412.688ZM212.455 392.723H232.42V412.688H212.455V392.723ZM212.455 372.759H232.42V392.723H212.455V372.759ZM212.455 352.794H232.42V372.759H212.455V352.794ZM192.491 352.794H212.455V372.759H192.491V352.794ZM172.526 352.794H192.491V372.759H172.526V352.794ZM172.526 372.759H192.491V392.723H172.526V372.759ZM172.526 392.723H192.491V412.688H172.526V392.723ZM172.526 412.688H192.491V432.652H172.526V412.688ZM172.526 432.652H192.491V452.617H172.526V432.652ZM192.491 432.652H212.455V452.617H192.491V432.652ZM192.491 412.688H212.455V432.652H192.491V412.688ZM192.491 392.723H212.455V412.688H192.491V392.723ZM192.491 372.759H212.455V392.723H192.491V372.759Z" fill="black"/>
</mask>
<g mask="url(#mask2_1315_140)">
<rect x="151.51" y="73.0661" width="113.479" height="399.542" fill="#F3F4F6" fill-opacity="0.2"/>
</g>
</g>
</g>
<defs>
<clipPath id="clip0_1315_140">
<rect width="546.977" height="546.977" fill="white"/>
</clipPath>
</defs>
</svg>
